<svg xmlns="http://www.w3.org/2000/svg" xmlns:xlink="http://www.w3.org/1999/xlink" width="92.935" height="62.561" viewBox="0 0 92.935 62.561">
  <defs>
    <clipPath id="clip-path">
      <rect id="Rectangle_1758" data-name="Rectangle 1758" width="92.935" height="62.561" fill="#fff" stroke="#707070" stroke-width="1"/>
    </clipPath>
  </defs>
  <g id="Mask_Group_220" data-name="Mask Group 220" clip-path="url(#clip-path)">
    <path id="Path_1162" data-name="Path 1162" d="M731.878,204.35,718.55,175.212a3.778,3.778,0,0,0-6.914,0l-10.242,22.834a3.722,3.722,0,0,0-3.623-3.657,3.478,3.478,0,0,0-2.114.719l9.936-22.149h-10.73l-12.461,27.5a2.117,2.117,0,0,1-3.893.027l-6.054-12.911a4.855,4.855,0,0,0-4.367-2.862c-3.6,0-5.952,3.963-4.391,7.379l13.329,29.138a3.777,3.777,0,0,0,6.913,0l10.211-22.762a3.72,3.72,0,0,0,3.621,3.585,3.5,3.5,0,0,0,2.167-.762l-9.956,22.192h10.73l12.463-27.5a2.115,2.115,0,0,1,3.891-.027l6.054,12.911a4.857,4.857,0,0,0,4.369,2.862C731.081,211.729,733.44,207.766,731.878,204.35Z" transform="translate(-651.32 -172.957)" fill="#fff"/>
  </g>
</svg>
