<svg id="Group_10284" data-name="Group 10284" xmlns="http://www.w3.org/2000/svg" width="169.423" height="133.786" viewBox="0 0 169.423 133.786">
  <path id="Path_12" data-name="Path 12" d="M831.427,256.082,798.78,178.927c-3.49-7.96-13.446-7.96-16.939,0l-25.09,60.461c-.213-5.389-4.1-9.684-8.875-9.684a8.12,8.12,0,0,0-5.178,1.9l24.339-58.649H740.754l-30.525,72.814c-1.91,4.548-7.571,4.594-9.535.072l-14.83-34.187c-2.014-4.641-6.16-7.578-10.7-7.578-8.807,0-14.581,10.494-10.757,19.538l32.652,77.155c3.489,7.96,13.446,7.96,16.935,0l25.013-60.27c.3,5.3,4.15,9.493,8.87,9.493a8.174,8.174,0,0,0,5.308-2.018L728.8,306.741h26.284l30.53-72.814c1.9-4.553,7.571-4.594,9.531-.072l14.83,34.187c2.014,4.641,6.164,7.578,10.7,7.578C829.477,275.62,835.256,265.126,831.427,256.082Z" transform="translate(-663.207 -172.958)" fill="#fff"/>
  <g id="Group_10283" data-name="Group 10283" transform="translate(0 48.235)" opacity="0.8" style="mix-blend-mode: lighten;isolation: isolate">
    <path id="Path_13" data-name="Path 13" d="M674.073,189.6l-4.3-8.688a3.461,3.461,0,0,0-6.219,3.04l4.3,8.914C668.869,194.888,674.643,190.75,674.073,189.6Z" transform="translate(-663.207 -178.987)" fill="#fff"/>
  </g>
  <path id="Path_14" data-name="Path 14" d="M685.034,186.412a2.573,2.573,0,0,0-4.073-1.977l-1.07,2.26a2.573,2.573,0,0,0,4.11,1.9Z" transform="translate(-598.117 -119.636)" fill="#fff" opacity="0.7" style="mix-blend-mode: lighten;isolation: isolate"/>
  <path id="Path_15" data-name="Path 15" d="M695.032,174.475a2.745,2.745,0,0,0-4.91,0l-2.949,6.23h10.735Z" transform="translate(-535.422 -172.958)" fill="#fff" opacity="0.8" style="mix-blend-mode: lighten;isolation: isolate"/>
  <path id="Path_16" data-name="Path 16" d="M675.879,185.2l5.854-12.243h7.619L682.3,187.863Z" transform="translate(-603.13 -172.957)" fill="#fff" opacity="0.7" style="mix-blend-mode: lighten;isolation: isolate"/>
</svg>
