<svg xmlns="http://www.w3.org/2000/svg" xmlns:xlink="http://www.w3.org/1999/xlink" width="83.35" height="50.907" viewBox="0 0 83.35 50.907">
  <defs>
    <clipPath id="clip-path">
      <rect id="Rectangle_1758" data-name="Rectangle 1758" width="83.35" height="50.907" transform="translate(15184 17103.037)" fill="#fff" stroke="#707070" stroke-width="1"/>
    </clipPath>
  </defs>
  <g id="Mask_Group_220" data-name="Mask Group 220" transform="translate(-15184 -17103.037)" clip-path="url(#clip-path)">
    <path id="Path_1162" data-name="Path 1162" d="M722.361,197.109l-11.481-22.417a3.424,3.424,0,0,0-5.956,0L696.1,192.259a3.049,3.049,0,0,0-3.121-2.814,3.234,3.234,0,0,0-1.821.553l8.559-17.041h-9.243l-10.734,21.156a1.916,1.916,0,0,1-3.353.021l-5.215-9.933a4.23,4.23,0,0,0-3.762-2.2,3.975,3.975,0,0,0-3.783,5.677l11.482,22.417a3.423,3.423,0,0,0,5.955,0l8.8-17.512a3.056,3.056,0,0,0,3.119,2.758,3.244,3.244,0,0,0,1.867-.586l-8.576,17.074h9.243l10.736-21.156a1.914,1.914,0,0,1,3.351-.021l5.215,9.933a4.232,4.232,0,0,0,3.764,2.2A3.974,3.974,0,0,0,722.361,197.109Z" transform="translate(14532.68 16930.08)" fill="#6ecee5"/>
  </g>
</svg>
